# xmcd
#
# Track frame offsets: 
#        150
#        11740
#        24683
#        37207
#        50673
#        68094
#        87943
#        97841
#        116007
#        127352
#        140787
#        155506
#        174199
#
# Disc length: 2548 seconds
#
# Revision: 0
# Processed by: cddbd v1.5.2PL0 Copyright (c) Steve Scherf et al.
# Submitted via: ExactAudioCopy v1.3
#
DISCID=b809f20d
DTITLE=John Bergstrom - Butterfield Stage
DYEAR=2012
DGENRE=Country
TTITLE0=Butterfield Stage
TTITLE1=Friends Forever
TTITLE2=The Fox
TTITLE3=King Of The Cowboys
TTITLE4=Solamon Pico
TTITLE5=Bandit Joaquin
TTITLE6=Lullaby For You
TTITLE7=On Califronia Ground
TTITLE8=Snowshoe Thompson
TTITLE9=The Water Is Wide
TTITLE10=James Dolan
TTITLE11=Throw Down The Box
TTITLE12=Last Song Was A Waltz
EXTD=
EXTT0=
EXTT1=
EXTT2=
EXTT3=
EXTT4=
EXTT5=
EXTT6=
EXTT7=
EXTT8=
EXTT9=
EXTT10=
EXTT11=
EXTT12=
PLAYORDER=
